<mxfile host="app.diagrams.net" modified="2023-05-21T08:46:38.404Z" agent="Mozilla/5.0 (Macintosh; Intel Mac OS X 10_15_7) AppleWebKit/537.36 (KHTML, like Gecko) Chrome/113.0.0.0 Safari/537.36" etag="6yJnLLFkD6qAs97VBgBx" version="21.3.2" type="device">
  <diagram name="Page-1" id="eiIDi1Ydcc5cmCxgIkz_">
    <mxGraphModel dx="714" dy="498" grid="1" gridSize="10" guides="1" tooltips="1" connect="1" arrows="1" fold="1" page="1" pageScale="1" pageWidth="827" pageHeight="1169" math="0" shadow="0">
      <root>
        <mxCell id="0" />
        <mxCell id="1" parent="0" />
        <mxCell id="mBGsappwKoWhBypRk-LP-4" style="edgeStyle=orthogonalEdgeStyle;rounded=0;orthogonalLoop=1;jettySize=auto;html=1;exitX=0.5;exitY=1;exitDx=0;exitDy=0;entryX=0.5;entryY=0;entryDx=0;entryDy=0;" edge="1" parent="1" source="mBGsappwKoWhBypRk-LP-1" target="mBGsappwKoWhBypRk-LP-3">
          <mxGeometry relative="1" as="geometry" />
        </mxCell>
        <mxCell id="mBGsappwKoWhBypRk-LP-1" value="Начало" style="rounded=1;whiteSpace=wrap;html=1;" vertex="1" parent="1">
          <mxGeometry x="320" y="40" width="120" height="30" as="geometry" />
        </mxCell>
        <mxCell id="mBGsappwKoWhBypRk-LP-2" value="Конец" style="rounded=1;whiteSpace=wrap;html=1;" vertex="1" parent="1">
          <mxGeometry x="470" y="590" width="120" height="30" as="geometry" />
        </mxCell>
        <mxCell id="mBGsappwKoWhBypRk-LP-8" style="edgeStyle=orthogonalEdgeStyle;rounded=0;orthogonalLoop=1;jettySize=auto;html=1;exitX=0.5;exitY=1;exitDx=0;exitDy=0;" edge="1" parent="1" source="mBGsappwKoWhBypRk-LP-3">
          <mxGeometry relative="1" as="geometry">
            <mxPoint x="380" y="160" as="targetPoint" />
          </mxGeometry>
        </mxCell>
        <mxCell id="mBGsappwKoWhBypRk-LP-3" value="arr_1&lt;br&gt;size_1" style="shape=parallelogram;perimeter=parallelogramPerimeter;whiteSpace=wrap;html=1;fixedSize=1;" vertex="1" parent="1">
          <mxGeometry x="320" y="100" width="120" height="40" as="geometry" />
        </mxCell>
        <mxCell id="mBGsappwKoWhBypRk-LP-11" style="edgeStyle=orthogonalEdgeStyle;rounded=0;orthogonalLoop=1;jettySize=auto;html=1;exitX=0.5;exitY=1;exitDx=0;exitDy=0;entryX=0.5;entryY=0;entryDx=0;entryDy=0;" edge="1" parent="1" source="mBGsappwKoWhBypRk-LP-5" target="mBGsappwKoWhBypRk-LP-10">
          <mxGeometry relative="1" as="geometry" />
        </mxCell>
        <mxCell id="mBGsappwKoWhBypRk-LP-12" value="YES" style="edgeLabel;html=1;align=center;verticalAlign=middle;resizable=0;points=[];" vertex="1" connectable="0" parent="mBGsappwKoWhBypRk-LP-11">
          <mxGeometry x="-0.3333" y="1" relative="1" as="geometry">
            <mxPoint as="offset" />
          </mxGeometry>
        </mxCell>
        <mxCell id="mBGsappwKoWhBypRk-LP-34" value="NO" style="edgeStyle=orthogonalEdgeStyle;rounded=0;orthogonalLoop=1;jettySize=auto;html=1;exitX=1;exitY=0.5;exitDx=0;exitDy=0;entryX=0.6;entryY=-0.033;entryDx=0;entryDy=0;entryPerimeter=0;" edge="1" parent="1" source="mBGsappwKoWhBypRk-LP-5" target="mBGsappwKoWhBypRk-LP-32">
          <mxGeometry relative="1" as="geometry" />
        </mxCell>
        <mxCell id="mBGsappwKoWhBypRk-LP-5" value="size_1 &amp;gt; 1" style="rhombus;whiteSpace=wrap;html=1;" vertex="1" parent="1">
          <mxGeometry x="340" y="160" width="80" height="80" as="geometry" />
        </mxCell>
        <mxCell id="mBGsappwKoWhBypRk-LP-10" value="arr_2&lt;br&gt;size_2 = size_1&lt;br&gt;i = 0" style="rounded=0;whiteSpace=wrap;html=1;" vertex="1" parent="1">
          <mxGeometry x="320" y="270" width="120" height="50" as="geometry" />
        </mxCell>
        <mxCell id="mBGsappwKoWhBypRk-LP-15" style="edgeStyle=orthogonalEdgeStyle;rounded=0;orthogonalLoop=1;jettySize=auto;html=1;exitX=0.5;exitY=1;exitDx=0;exitDy=0;entryX=0.5;entryY=0;entryDx=0;entryDy=0;" edge="1" parent="1" source="mBGsappwKoWhBypRk-LP-10" target="mBGsappwKoWhBypRk-LP-16">
          <mxGeometry relative="1" as="geometry">
            <mxPoint x="380" y="400" as="targetPoint" />
            <mxPoint x="380" y="370" as="sourcePoint" />
          </mxGeometry>
        </mxCell>
        <mxCell id="mBGsappwKoWhBypRk-LP-18" style="edgeStyle=orthogonalEdgeStyle;rounded=0;orthogonalLoop=1;jettySize=auto;html=1;exitX=0.5;exitY=1;exitDx=0;exitDy=0;entryX=0.5;entryY=0;entryDx=0;entryDy=0;" edge="1" parent="1" source="mBGsappwKoWhBypRk-LP-16" target="mBGsappwKoWhBypRk-LP-17">
          <mxGeometry relative="1" as="geometry" />
        </mxCell>
        <mxCell id="mBGsappwKoWhBypRk-LP-16" value="arr_2[i] = arr_1[size_1 - 1 - i]" style="rounded=0;whiteSpace=wrap;html=1;" vertex="1" parent="1">
          <mxGeometry x="297.5" y="350" width="165" height="40" as="geometry" />
        </mxCell>
        <mxCell id="mBGsappwKoWhBypRk-LP-27" style="edgeStyle=orthogonalEdgeStyle;rounded=0;orthogonalLoop=1;jettySize=auto;html=1;exitX=0.5;exitY=1;exitDx=0;exitDy=0;entryX=0.5;entryY=0;entryDx=0;entryDy=0;" edge="1" parent="1" source="mBGsappwKoWhBypRk-LP-17" target="mBGsappwKoWhBypRk-LP-26">
          <mxGeometry relative="1" as="geometry" />
        </mxCell>
        <mxCell id="mBGsappwKoWhBypRk-LP-17" value="i = i +1" style="rounded=0;whiteSpace=wrap;html=1;" vertex="1" parent="1">
          <mxGeometry x="320" y="420" width="120" height="30" as="geometry" />
        </mxCell>
        <mxCell id="mBGsappwKoWhBypRk-LP-28" value="YES" style="edgeStyle=orthogonalEdgeStyle;rounded=0;orthogonalLoop=1;jettySize=auto;html=1;exitX=0.5;exitY=1;exitDx=0;exitDy=0;entryX=0.5;entryY=0;entryDx=0;entryDy=0;" edge="1" parent="1" source="mBGsappwKoWhBypRk-LP-26" target="mBGsappwKoWhBypRk-LP-16">
          <mxGeometry relative="1" as="geometry">
            <Array as="points">
              <mxPoint x="380" y="580" />
              <mxPoint x="270" y="580" />
              <mxPoint x="270" y="330" />
              <mxPoint x="380" y="330" />
            </Array>
          </mxGeometry>
        </mxCell>
        <mxCell id="mBGsappwKoWhBypRk-LP-30" value="NO" style="edgeStyle=orthogonalEdgeStyle;rounded=0;orthogonalLoop=1;jettySize=auto;html=1;exitX=1;exitY=0.5;exitDx=0;exitDy=0;entryX=0.617;entryY=0;entryDx=0;entryDy=0;entryPerimeter=0;" edge="1" parent="1" source="mBGsappwKoWhBypRk-LP-26" target="mBGsappwKoWhBypRk-LP-29">
          <mxGeometry relative="1" as="geometry" />
        </mxCell>
        <mxCell id="mBGsappwKoWhBypRk-LP-26" value="i &amp;lt; size" style="rhombus;whiteSpace=wrap;html=1;" vertex="1" parent="1">
          <mxGeometry x="340" y="480" width="80" height="80" as="geometry" />
        </mxCell>
        <mxCell id="mBGsappwKoWhBypRk-LP-31" style="edgeStyle=orthogonalEdgeStyle;rounded=0;orthogonalLoop=1;jettySize=auto;html=1;exitX=0.5;exitY=1;exitDx=0;exitDy=0;entryX=0.5;entryY=0;entryDx=0;entryDy=0;" edge="1" parent="1" source="mBGsappwKoWhBypRk-LP-29" target="mBGsappwKoWhBypRk-LP-2">
          <mxGeometry relative="1" as="geometry" />
        </mxCell>
        <mxCell id="mBGsappwKoWhBypRk-LP-29" value="arr_2" style="shape=parallelogram;perimeter=parallelogramPerimeter;whiteSpace=wrap;html=1;fixedSize=1;" vertex="1" parent="1">
          <mxGeometry x="470" y="490" width="120" height="60" as="geometry" />
        </mxCell>
        <mxCell id="mBGsappwKoWhBypRk-LP-33" style="edgeStyle=orthogonalEdgeStyle;rounded=0;orthogonalLoop=1;jettySize=auto;html=1;exitX=0.5;exitY=1;exitDx=0;exitDy=0;" edge="1" parent="1" source="mBGsappwKoWhBypRk-LP-32">
          <mxGeometry relative="1" as="geometry">
            <mxPoint x="530" y="590" as="targetPoint" />
          </mxGeometry>
        </mxCell>
        <mxCell id="mBGsappwKoWhBypRk-LP-32" value="Irreversible array" style="shape=parallelogram;perimeter=parallelogramPerimeter;whiteSpace=wrap;html=1;fixedSize=1;" vertex="1" parent="1">
          <mxGeometry x="610" y="490" width="120" height="60" as="geometry" />
        </mxCell>
      </root>
    </mxGraphModel>
  </diagram>
</mxfile>
